<svg width="32" height="32" viewBox="0 0 32 32" fill="none" xmlns="http://www.w3.org/2000/svg">
<path d="M30.4299 14.9975L23.9449 8.4853L23.9331 8.47349L23.9074 8.45093C23.8654 8.41284 23.8215 8.37698 23.7758 8.3435C23.7437 8.31772 23.7117 8.29301 23.6774 8.27045C23.6624 8.25971 23.6475 8.25112 23.6314 8.24145C23.2617 7.99829 22.8144 7.90363 22.3784 7.97627C21.9425 8.04891 21.5496 8.28353 21.2779 8.63355L11.192 18.7628V9.73898C11.192 9.2646 11.0043 8.80964 10.6703 8.4742C10.3362 8.13877 9.88318 7.95032 9.41078 7.95032C8.93838 7.95032 8.48532 8.13877 8.15129 8.4742C7.81725 8.80964 7.62959 9.2646 7.62959 9.73898V18.7628L3.94739 15.0652C3.61082 14.7429 3.16206 14.5656 2.69703 14.5712C2.23199 14.5767 1.78756 14.7647 1.45871 15.0949C1.12986 15.4252 0.942667 15.8714 0.937138 16.3384C0.931609 16.8054 1.10818 17.2561 1.42912 17.594L8.15164 24.3447C8.19389 24.3877 8.23854 24.4283 8.28537 24.4661C8.3303 24.5027 8.37737 24.5381 8.42444 24.5736C8.66733 24.7316 8.94493 24.8279 9.23319 24.854H9.24068C9.29845 24.8593 9.35622 24.8625 9.41399 24.8625H9.44073C9.48923 24.8625 9.53737 24.8604 9.58515 24.8561H9.62046C9.66646 24.8507 9.71246 24.8454 9.75739 24.8357H9.77771C9.82799 24.8249 9.87827 24.8131 9.92748 24.7981H9.93604C9.98975 24.7818 10.0426 24.7628 10.0944 24.7412C10.1682 24.7105 10.2397 24.6746 10.3083 24.6337L10.349 24.6101C10.4163 24.5688 10.4806 24.5228 10.5415 24.4726L10.5597 24.4565C10.5972 24.4242 10.6346 24.392 10.6667 24.3555L20.8938 14.079V23.075C20.8938 23.5493 21.0815 24.0043 21.4155 24.3397C21.7496 24.6752 22.2026 24.8636 22.675 24.8636C23.1474 24.8636 23.6005 24.6752 23.9345 24.3397C24.2686 24.0043 24.4562 23.5493 24.4562 23.075V14.0511L27.9116 17.5274C28.247 17.8562 28.698 18.039 29.1668 18.0361C29.6355 18.0332 30.0842 17.8449 30.4156 17.512C30.747 17.1791 30.9343 16.7284 30.937 16.2577C30.9397 15.787 30.7575 15.3342 30.4299 14.9975Z" fill="white"/>
</svg>
