<svg width="21" height="21" viewBox="0 0 21 21" fill="none" xmlns="http://www.w3.org/2000/svg">
<path fill-rule="evenodd" clip-rule="evenodd" d="M10.096 1.42285L5.29078 4.17992L7.05741 5.19848L10.096 3.45993L13.1345 5.19848L14.9012 4.17992L10.096 1.42285ZM13.1345 6.63848L14.9012 7.65701V9.69408L11.8625 11.4326V14.9097L10.096 15.9283L8.32936 14.9097V11.4326L5.29078 9.69408V7.65701L7.05741 6.63848L10.096 8.37698L13.1345 6.63848ZM14.9012 11.1341V13.1712L13.1345 14.1897V12.1526L14.9012 11.1341ZM13.1169 15.6297L16.1555 13.8911V10.4141L17.922 9.39556V14.9097L13.1169 17.6667V15.6297ZM16.1555 6.937L14.3888 5.91848L16.1555 4.89993L17.922 5.91848V7.95555L16.1555 8.97411V6.937ZM8.32936 18.4044V16.3673L10.096 17.3858L11.8625 16.3673V18.4044L10.096 19.4229L8.32936 18.4044ZM7.05741 14.1897L5.29078 13.1712V11.1341L7.05741 12.1526V14.1897ZM10.096 6.937L8.32936 5.91848L10.096 4.89993L11.8625 5.91848L10.096 6.937ZM5.8031 5.91848L4.03648 6.937V8.97411L2.26987 7.95555V5.91848L4.03648 4.89993L5.8031 5.91848ZM2.26987 9.39556L4.03648 10.4141V13.8911L7.07505 15.6297V17.6667L2.26987 14.9097V9.39556Z" fill="#F0B90B"/>
</svg>
